<?xml version="1.0" encoding="UTF-8"?>
<svg id="_레이어_7" data-name="레이어 7" xmlns="http://www.w3.org/2000/svg" viewBox="0 0 279 198">
  <defs>
    <style>
      .cls-1 {
        fill: #040000;
        stroke: #040000;
      }

      .cls-1, .cls-2 {
        stroke-miterlimit: 10;
      }

      .cls-2 {
        fill: #fff;
        stroke: #fff;
      }
    </style>
  </defs>
  <rect class="cls-2" width="270" height="189"/>
  <rect class="cls-1" y="18" width="279" height="9"/>
  <rect class="cls-1" y="9" width="9" height="189"/>
  <rect class="cls-1" x="9" y="189" width="270" height="9"/>
  <rect class="cls-1" x="270" y="27" width="9" height="162"/>
  <rect class="cls-1" width="279" height="9"/>
  <rect class="cls-2" x="135" y="45" width="4.25" height="4.25"/>
  <rect class="cls-1" x="135" y="45" width="4.25" height="4.25"/>
  <rect class="cls-1" x="130.75" y="49.75" width="4.25" height="4.25"/>
  <rect class="cls-1" x="130.75" y="54" width="4.25" height="4.25"/>
  <rect class="cls-1" x="126" y="58.75" width="4.25" height="4.25"/>
  <rect class="cls-1" x="126" y="63" width="4.25" height="4.25"/>
  <rect class="cls-1" x="121.75" y="67.75" width="4.25" height="4.25"/>
  <rect class="cls-1" x="121.75" y="72" width="4.25" height="4.25"/>
  <rect class="cls-1" x="117" y="76.75" width="4.25" height="4.25"/>
  <rect class="cls-1" x="117" y="81" width="4.25" height="4.25"/>
  <rect class="cls-1" x="112.75" y="85.75" width="4.25" height="4.25"/>
  <rect class="cls-1" x="112.75" y="90" width="4.25" height="4.25"/>
  <rect class="cls-1" x="108" y="94.75" width="4.25" height="4.25"/>
  <rect class="cls-1" x="108" y="99" width="4.25" height="4.25"/>
  <rect class="cls-1" x="108" y="103.75" width="4.25" height="4.25"/>
  <rect class="cls-1" x="112.75" y="103.75" width="4.25" height="4.25"/>
  <rect class="cls-1" x="117" y="103.75" width="4.25" height="4.25"/>
  <rect class="cls-1" x="121.75" y="103.75" width="4.25" height="4.25"/>
  <rect class="cls-1" x="126" y="103.75" width="4.25" height="4.25"/>
  <rect class="cls-1" x="130.75" y="103.75" width="4.25" height="4.25"/>
  <rect class="cls-1" x="135" y="103.75" width="4.25" height="4.25"/>
  <rect class="cls-1" x="139.75" y="103.75" width="4.25" height="4.25"/>
  <rect class="cls-1" x="144" y="103.75" width="4.25" height="4.25"/>
  <rect class="cls-1" x="148.75" y="103.75" width="4.25" height="4.25"/>
  <rect class="cls-1" x="153" y="103.75" width="4.25" height="4.25"/>
  <rect class="cls-1" x="139.75" y="49.75" width="4.25" height="4.25"/>
  <rect class="cls-1" x="139.75" y="54" width="4.25" height="4.25"/>
  <rect class="cls-1" x="144" y="58.75" width="4.25" height="4.25"/>
  <rect class="cls-1" x="144" y="63" width="4.25" height="4.25"/>
  <rect class="cls-1" x="148.75" y="67.75" width="4.25" height="4.25"/>
  <rect class="cls-1" x="148.75" y="72" width="4.25" height="4.25"/>
  <rect class="cls-1" x="153" y="76.75" width="4.25" height="4.25"/>
  <rect class="cls-1" x="153" y="81" width="4.25" height="4.25"/>
  <rect class="cls-1" x="157.75" y="85.75" width="4.25" height="4.25"/>
  <rect class="cls-1" x="157.75" y="90" width="4.25" height="4.25"/>
  <rect class="cls-1" x="162" y="94.75" width="4.25" height="4.25"/>
  <rect class="cls-1" x="162" y="99" width="4.25" height="4.25"/>
  <rect class="cls-1" x="162" y="103.75" width="4.25" height="4.25"/>
  <rect class="cls-1" x="157.75" y="103.75" width="4.25" height="4.25"/>
  <rect class="cls-1" x="153" y="103.75" width="4.25" height="4.25"/>
  <rect class="cls-1" x="135" y="67.75" width="4.25" height="4.25"/>
  <rect class="cls-1" x="135" y="72" width="4.25" height="4.25"/>
  <rect class="cls-1" x="135" y="76.75" width="4.25" height="4.25"/>
  <rect class="cls-1" x="135" y="94.75" width="4.25" height="4.25"/>
  <rect class="cls-1" x="135" y="85.75" width="4.25" height="4.25"/>
  <rect class="cls-1" x="135" y="81" width="4.25" height="4.25"/>
  <rect class="cls-1" x="36" y="117" width="4.25" height="4.25"/>
  <rect class="cls-1" x="40.75" y="117" width="4.25" height="4.25"/>
  <rect class="cls-1" x="45" y="117" width="4.25" height="4.25"/>
  <rect class="cls-1" x="36" y="130.75" width="4.25" height="4.25"/>
  <rect class="cls-1" x="31.75" y="130.75" width="4.25" height="4.25"/>
  <rect class="cls-1" x="31.75" y="126" width="4.25" height="4.25"/>
  <rect class="cls-1" x="31.75" y="121.75" width="4.25" height="4.25"/>
  <rect class="cls-1" x="31.75" y="117" width="4.25" height="4.25"/>
  <rect class="cls-1" x="36" y="117" width="4.25" height="4.25"/>
  <rect class="cls-1" x="40.75" y="130.75" width="4.25" height="4.25"/>
  <rect class="cls-1" x="45" y="130.75" width="4.25" height="4.25"/>
  <rect class="cls-1" x="45" y="130.75" width="4.25" height="4.25"/>
  <rect class="cls-1" x="40.75" y="130.75" width="4.25" height="4.25"/>
  <rect class="cls-1" x="45" y="117" width="4.25" height="4.25"/>
  <rect class="cls-1" x="40.75" y="117" width="4.25" height="4.25"/>
  <rect class="cls-1" x="40.75" y="130.75" width="4.25" height="4.25"/>
  <rect class="cls-1" x="40.75" y="139.5" width="4.25" height="4.25"/>
  <rect class="cls-1" x="31.75" y="144.25" width="4.25" height="4.25"/>
  <rect class="cls-1" x="36" y="144.25" width="4.25" height="4.25"/>
  <rect class="cls-1" x="40.75" y="144.25" width="4.25" height="4.25"/>
  <rect class="cls-1" x="45" y="144.25" width="4.25" height="4.25"/>
  <rect class="cls-1" x="49.75" y="144.25" width="4.25" height="4.25"/>
  <rect class="cls-1" x="63" y="117" width="4.25" height="4.25"/>
  <rect class="cls-1" x="67.25" y="117" width="4.25" height="4.25"/>
  <rect class="cls-1" x="72" y="117" width="4.25" height="4.25"/>
  <rect class="cls-1" x="67.25" y="121.75" width="4.25" height="4.25"/>
  <rect class="cls-1" x="67.25" y="126" width="4.25" height="4.25"/>
  <rect class="cls-1" x="63" y="130.75" width="4.25" height="4.25"/>
  <rect class="cls-1" x="72" y="130.75" width="4.25" height="4.25"/>
  <rect class="cls-1" x="67.25" y="139.75" width="4.25" height="4.25"/>
  <rect class="cls-1" x="67.25" y="144" width="4.25" height="4.25"/>
  <rect class="cls-1" x="63" y="144" width="4.25" height="4.25"/>
  <rect class="cls-1" x="58.75" y="144" width="4.25" height="4.25"/>
  <rect class="cls-1" x="63" y="144" width="4.25" height="4.25"/>
  <rect class="cls-1" x="67.75" y="144" width="4.25" height="4.25"/>
  <rect class="cls-1" x="72" y="144" width="4.25" height="4.25"/>
  <rect class="cls-1" x="76.75" y="144" width="4.25" height="4.25"/>
  <rect class="cls-1" x="63" y="153" width="4.25" height="4.25"/>
  <rect class="cls-1" x="72" y="144" width="4.25" height="4.25"/>
  <rect class="cls-1" x="63" y="153" width="4.25" height="4.25"/>
  <rect class="cls-1" x="67.25" y="153" width="4.25" height="4.25"/>
  <rect class="cls-1" x="72" y="153" width="4.25" height="4.25"/>
  <rect class="cls-1" x="72" y="157.75" width="4.25" height="4.25"/>
  <rect class="cls-1" x="40.75" y="157.75" width="4.25" height="4.25"/>
  <rect class="cls-1" x="40.75" y="157.75" width="4.25" height="4.25"/>
  <rect class="cls-1" x="40.75" y="157.75" width="4.25" height="4.25"/>
  <rect class="cls-1" x="36" y="162.5" width="4.25" height="4.25"/>
  <rect class="cls-1" x="40.75" y="162.5" width="4.25" height="4.25"/>
  <rect class="cls-1" x="40.75" y="166.75" width="4.25" height="4.25"/>
  <rect class="cls-1" x="45" y="162.5" width="4.25" height="4.25"/>
  <rect class="cls-1" x="108" y="121.25" width="4.25" height="4.25"/>
  <rect class="cls-1" x="103.75" y="126" width="4.25" height="4.25"/>
  <rect class="cls-1" x="103.75" y="130.25" width="4.25" height="4.25"/>
  <rect class="cls-1" x="99" y="135" width="4.25" height="4.25"/>
  <rect class="cls-1" x="112.75" y="126" width="4.25" height="4.25"/>
  <rect class="cls-1" x="112.75" y="130.25" width="4.25" height="4.25"/>
  <rect class="cls-1" x="117" y="135" width="4.25" height="4.25"/>
  <rect class="cls-1" x="121.75" y="126" width="4.25" height="4.25"/>
  <rect class="cls-1" x="126" y="126" width="4.25" height="4.25"/>
  <rect class="cls-1" x="126" y="130.25" width="4.25" height="4.25"/>
  <rect class="cls-1" x="126" y="135" width="4.25" height="4.25"/>
  <rect class="cls-1" x="126" y="139.25" width="4.25" height="4.25"/>
  <rect class="cls-1" x="126" y="135" width="4.25" height="4.25"/>
  <rect class="cls-1" x="126" y="130.25" width="4.25" height="4.25"/>
  <rect class="cls-1" x="126" y="126" width="4.25" height="4.25"/>
  <rect class="cls-1" x="126" y="121.25" width="4.25" height="4.25"/>
  <rect class="cls-1" x="108" y="148.25" width="4.25" height="4.25"/>
  <rect class="cls-1" x="108" y="148.25" width="4.25" height="4.25"/>
  <rect class="cls-1" x="108" y="157.25" width="4.25" height="4.25"/>
  <rect class="cls-1" x="108" y="161.5" width="4.25" height="4.25"/>
  <rect class="cls-1" x="108" y="166.75" width="4.25" height="4.25"/>
  <rect class="cls-1" x="112.75" y="166.75" width="4.25" height="4.25"/>
  <rect class="cls-1" x="117" y="166.75" width="4.25" height="4.25"/>
  <rect class="cls-1" x="121.75" y="166.75" width="4.25" height="4.25"/>
  <rect class="cls-1" x="148.75" y="162" width="4.25" height="4.25"/>
  <rect class="cls-1" x="148.75" y="166.75" width="4.25" height="4.25"/>
  <rect class="cls-1" x="72" y="162" width="4.25" height="4.25"/>
  <rect class="cls-1" x="72" y="166.75" width="4.25" height="4.25"/>
  <rect class="cls-1" x="247.75" y="157.75" width="4.25" height="4.25"/>
  <rect class="cls-1" x="247.75" y="153" width="4.25" height="4.25"/>
  <rect class="cls-1" x="121.75" y="157.25" width="4.25" height="4.25"/>
  <rect class="cls-1" x="121.75" y="161.5" width="4.25" height="4.25"/>
  <rect class="cls-1" x="121.75" y="157.25" width="4.25" height="4.25"/>
  <rect class="cls-1" x="121.75" y="148.25" width="4.25" height="4.25"/>
  <rect class="cls-1" x="108" y="152.5" width="4.25" height="4.25"/>
  <rect class="cls-1" x="112.75" y="157.75" width="4.25" height="4.25"/>
  <rect class="cls-1" x="117" y="157.75" width="4.25" height="4.25"/>
  <rect class="cls-1" x="121.75" y="152.5" width="4.25" height="4.25"/>
  <rect class="cls-1" x="121.75" y="148.25" width="4.25" height="4.25"/>
  <rect class="cls-1" x="108" y="117" width="4.25" height="4.25"/>
  <rect class="cls-1" x="126" y="117" width="4.25" height="4.25"/>
  <rect class="cls-1" x="139.25" y="121.25" width="4.25" height="4.25"/>
  <rect class="cls-1" x="144" y="121.25" width="4.25" height="4.25"/>
  <rect class="cls-1" x="148.25" y="121.25" width="4.25" height="4.25"/>
  <rect class="cls-1" x="153" y="121.25" width="4.25" height="4.25"/>
  <rect class="cls-1" x="148.25" y="117" width="4.25" height="4.25"/>
  <rect class="cls-1" x="157.25" y="121.25" width="4.25" height="4.25"/>
  <rect class="cls-1" x="148.25" y="126" width="4.25" height="4.25"/>
  <rect class="cls-1" x="144" y="130.25" width="4.25" height="4.25"/>
  <rect class="cls-1" x="139.25" y="135" width="4.25" height="4.25"/>
  <rect class="cls-1" x="153" y="130.25" width="4.25" height="4.25"/>
  <rect class="cls-1" x="157.25" y="135" width="4.25" height="4.25"/>
  <rect class="cls-1" x="148.75" y="148.25" width="4.25" height="4.25"/>
  <rect class="cls-1" x="153.5" y="148.25" width="4.25" height="4.25"/>
  <rect class="cls-1" x="157.75" y="148.25" width="4.25" height="4.25"/>
  <rect class="cls-1" x="166.75" y="139.75" width="4.25" height="4.25"/>
  <rect class="cls-1" x="166.75" y="144" width="4.25" height="4.25"/>
  <rect class="cls-1" x="166.75" y="148.75" width="4.25" height="4.25"/>
  <rect class="cls-1" x="166.75" y="139.75" width="4.25" height="4.25"/>
  <rect class="cls-1" x="166.75" y="135" width="4.25" height="4.25"/>
  <rect class="cls-1" x="166.75" y="130.75" width="4.25" height="4.25"/>
  <rect class="cls-1" x="166.75" y="126.5" width="4.25" height="4.25"/>
  <rect class="cls-1" x="166.75" y="121.75" width="4.25" height="4.25"/>
  <rect class="cls-1" x="166.75" y="117.5" width="4.25" height="4.25"/>
  <rect class="cls-1" x="144" y="148.25" width="4.25" height="4.25"/>
  <rect class="cls-1" x="139.75" y="148.25" width="4.25" height="4.25"/>
  <rect class="cls-1" x="139.75" y="148.25" width="4.25" height="4.25"/>
  <rect class="cls-1" x="148.75" y="153" width="4.25" height="4.25"/>
  <rect class="cls-1" x="148.75" y="157.75" width="4.25" height="4.25"/>
  <rect class="cls-1" x="148.75" y="162" width="4.25" height="4.25"/>
  <rect class="cls-1" x="148.75" y="153" width="4.25" height="4.25"/>
  <rect class="cls-1" x="193.75" y="117" width="4.25" height="4.25"/>
  <rect class="cls-1" x="193.75" y="121.25" width="4.25" height="4.25"/>
  <rect class="cls-1" x="193.75" y="126" width="4.25" height="4.25"/>
  <rect class="cls-1" x="193.75" y="130.25" width="4.25" height="4.25"/>
  <rect class="cls-1" x="198" y="130.25" width="4.25" height="4.25"/>
  <rect class="cls-1" x="202.75" y="130.25" width="4.25" height="4.25"/>
  <rect class="cls-1" x="207" y="130.25" width="4.25" height="4.25"/>
  <rect class="cls-1" x="211.75" y="130.25" width="4.25" height="4.25"/>
  <rect class="cls-1" x="211.75" y="126" width="4.25" height="4.25"/>
  <rect class="cls-1" x="211.75" y="117" width="4.25" height="4.25"/>
  <rect class="cls-1" x="211.75" y="121.25" width="4.25" height="4.25"/>
  <rect class="cls-1" x="207" y="121.25" width="4.25" height="4.25"/>
  <rect class="cls-1" x="202.75" y="121.25" width="4.25" height="4.25"/>
  <rect class="cls-1" x="198" y="121.25" width="4.25" height="4.25"/>
  <rect class="cls-1" x="193.75" y="139.25" width="4.25" height="4.25"/>
  <rect class="cls-1" x="198" y="139.25" width="4.25" height="4.25"/>
  <rect class="cls-1" x="202.75" y="139.25" width="4.25" height="4.25"/>
  <rect class="cls-1" x="207" y="139.25" width="4.25" height="4.25"/>
  <rect class="cls-1" x="211.75" y="139.25" width="4.25" height="4.25"/>
  <rect class="cls-1" x="202.75" y="144" width="4.25" height="4.25"/>
  <rect class="cls-1" x="193.75" y="148.25" width="4.25" height="4.25"/>
  <rect class="cls-1" x="198" y="148.25" width="4.25" height="4.25"/>
  <rect class="cls-1" x="202.75" y="148.25" width="4.25" height="4.25"/>
  <rect class="cls-1" x="207" y="148.25" width="4.25" height="4.25"/>
  <rect class="cls-1" x="211.75" y="148.25" width="4.25" height="4.25"/>
  <rect class="cls-1" x="211.75" y="153" width="4.25" height="4.25"/>
  <rect class="cls-1" x="211.75" y="157.25" width="4.25" height="4.25"/>
  <rect class="cls-1" x="207" y="157.25" width="4.25" height="4.25"/>
  <rect class="cls-1" x="202.75" y="157.25" width="4.25" height="4.25"/>
  <rect class="cls-1" x="198" y="157.25" width="4.25" height="4.25"/>
  <rect class="cls-1" x="193.75" y="157.25" width="4.25" height="4.25"/>
  <rect class="cls-1" x="193.75" y="162" width="4.25" height="4.25"/>
  <rect class="cls-1" x="193.75" y="166.25" width="4.25" height="4.25"/>
  <rect class="cls-1" x="198" y="166.25" width="4.25" height="4.25"/>
  <rect class="cls-1" x="202.75" y="166.25" width="4.25" height="4.25"/>
  <rect class="cls-1" x="207" y="166.25" width="4.25" height="4.25"/>
  <rect class="cls-1" x="211.75" y="166.25" width="4.25" height="4.25"/>
  <rect class="cls-1" x="225" y="121.25" width="4.25" height="4.25"/>
  <rect class="cls-1" x="229.75" y="121.25" width="4.25" height="4.25"/>
  <rect class="cls-1" x="234" y="121.25" width="4.25" height="4.25"/>
  <rect class="cls-1" x="238.75" y="121.25" width="4.25" height="4.25"/>
  <rect class="cls-1" x="238.75" y="126" width="4.25" height="4.25"/>
  <rect class="cls-1" x="238.75" y="130.25" width="4.25" height="4.25"/>
  <rect class="cls-1" x="234" y="135" width="4.25" height="4.25"/>
  <rect class="cls-1" x="229.75" y="139.25" width="4.25" height="4.25"/>
  <rect class="cls-1" x="225" y="144" width="4.25" height="4.25"/>
  <rect class="cls-1" x="247.75" y="117" width="4.25" height="4.25"/>
  <rect class="cls-1" x="247.75" y="121.25" width="4.25" height="4.25"/>
  <rect class="cls-1" x="247.75" y="126" width="4.25" height="4.25"/>
  <rect class="cls-1" x="252" y="130.25" width="4.25" height="4.25"/>
  <rect class="cls-1" x="247.75" y="135" width="4.25" height="4.25"/>
  <rect class="cls-1" x="247.75" y="139.25" width="4.25" height="4.25"/>
  <rect class="cls-1" x="247.75" y="144" width="4.25" height="4.25"/>
  <rect class="cls-1" x="247.75" y="148.25" width="4.25" height="4.25"/>
  <rect class="cls-1" x="247.75" y="130.25" width="4.25" height="4.25"/>
  <rect class="cls-1" x="252" y="130.25" width="4.25" height="4.25"/>
  <rect class="cls-1" x="9" y="9" width="270" height="18"/>
  <rect class="cls-2" x="9" y="9" width="9" height="9"/>
  <rect class="cls-2" x="9" y="15.17" width="2.83" height="2.83"/>
  <rect class="cls-2" x="15.17" y="15.17" width="2.83" height="2.83"/>
  <rect class="cls-2" x="15.17" y="9" width="2.83" height="2.83"/>
  <rect class="cls-2" x="261" y="9" width="9" height="9"/>
</svg>