<?xml version="1.0" encoding="UTF-8"?>
<svg id="_레이어_3" data-name="레이어 3" xmlns="http://www.w3.org/2000/svg" viewBox="0 0 63 63">
  <defs>
    <style>
      .cls-1 {
        fill: #040000;
        stroke: #040000;
        stroke-miterlimit: 10;
      }
    </style>
  </defs>
  <rect class="cls-1" x="49.75" y="14.69" width="4.25" height="4.25"/>
  <rect class="cls-1" x="49.75" y="9.94" width="4.25" height="4.25"/>
  <rect class="cls-1" x="49.75" y="5.69" width="4.25" height="4.25"/>
  <rect class="cls-1" x="45.5" y="5.69" width="4.25" height="4.25"/>
  <rect class="cls-1" x="40.75" y="5.69" width="4.25" height="4.25"/>
  <rect class="cls-1" x="36.5" y="5.69" width="4.25" height="4.25"/>
  <rect class="cls-1" x="31.75" y="5.69" width="4.25" height="4.25"/>
  <rect class="cls-1" x="27.5" y="5.69" width="4.25" height="4.25"/>
  <rect class="cls-1" x="22.75" y="5.69" width="4.25" height="4.25"/>
  <rect class="cls-1" x="18.5" y="5.69" width="4.25" height="4.25"/>
  <rect class="cls-1" x="13.75" y="5.69" width="4.25" height="4.25"/>
  <rect class="cls-1" x="13.75" y="9.94" width="4.25" height="4.25"/>
  <rect class="cls-1" x="9.5" y="9.94" width="4.25" height="4.25"/>
  <rect class="cls-1" x="9.5" y="14.69" width="4.25" height="4.25"/>
  <rect class="cls-1" x="9.5" y="18.94" width="4.25" height="4.25"/>
  <rect class="cls-1" x="9.5" y="23.69" width="4.25" height="4.25"/>
  <rect class="cls-1" x="4.75" y="23.69" width="4.25" height="4.25"/>
  <rect class="cls-1" x="4.75" y="27.94" width="4.25" height="4.25"/>
  <rect class="cls-1" x="4.75" y="32.69" width="4.25" height="4.25"/>
  <rect class="cls-1" x="4.75" y="19.44" width="4.25" height="4.25"/>
  <rect class="cls-1" x="9.5" y="50.69" width="4.25" height="4.25"/>
  <rect class="cls-1" x="13.75" y="50.69" width="4.25" height="4.25"/>
  <rect class="cls-1" x="13.75" y="54.94" width="4.25" height="4.25"/>
  <rect class="cls-1" x="13.75" y="59.69" width="4.25" height="4.25"/>
  <rect class="cls-1" x="18.5" y="59.69" width="4.25" height="4.25"/>
  <rect class="cls-1" x="22.75" y="59.69" width="4.25" height="4.25"/>
  <rect class="cls-1" x="27.5" y="59.69" width="4.25" height="4.25"/>
  <rect class="cls-1" x="31.75" y="59.69" width="4.25" height="4.25"/>
  <rect class="cls-1" x="36.5" y="59.69" width="4.25" height="4.25"/>
  <rect class="cls-1" x="40.75" y="59.69" width="4.25" height="4.25"/>
  <rect class="cls-1" x="45.5" y="59.69" width="4.25" height="4.25"/>
  <rect class="cls-1" x="49.75" y="59.69" width="4.25" height="4.25"/>
  <rect class="cls-1" x="54.5" y="59.69" width="4.25" height="4.25"/>
  <rect class="cls-1" x="54.5" y="54.94" width="4.25" height="4.25"/>
  <rect class="cls-1" x="54.5" y="50.69" width="4.25" height="4.25"/>
  <rect class="cls-1" x="54.5" y="45.94" width="4.25" height="4.25"/>
  <rect class="cls-1" x="58.75" y="45.94" width="4.25" height="4.25"/>
  <rect class="cls-1" x="58.75" y="41.69" width="4.25" height="4.25"/>
  <rect class="cls-1" x="58.75" y="36.94" width="4.25" height="4.25"/>
  <rect class="cls-1" x="58.75" y="32.69" width="4.25" height="4.25"/>
  <rect class="cls-1" x="58.75" y="27.94" width="4.25" height="4.25"/>
  <rect class="cls-1" x="58.75" y="23.69" width="4.25" height="4.25"/>
  <rect class="cls-1" x="58.75" y="18.94" width="4.25" height="4.25"/>
  <rect class="cls-1" x="54.5" y="18.94" width="4.25" height="4.25"/>
  <rect class="cls-1" x="49.75" y="18.94" width="4.25" height="4.25"/>
  <rect class="cls-1" x="45.5" y="18.94" width="4.25" height="4.25"/>
  <rect class="cls-1" x="40.75" y="18.94" width="4.25" height="4.25"/>
  <rect class="cls-1" x="36.5" y="18.94" width="4.25" height="4.25"/>
  <rect class="cls-1" x="31.75" y="18.94" width="4.25" height="4.25"/>
  <rect class="cls-1" x="27.5" y="18.94" width="4.25" height="4.25"/>
  <rect class="cls-1" x="22.75" y="18.94" width="4.25" height="4.25"/>
  <rect class="cls-1" x="18.5" y="18.94" width="4.25" height="4.25"/>
  <rect class="cls-1" x="18.5" y="23.69" width="4.25" height="4.25"/>
  <rect class="cls-1" x="18.5" y="27.94" width="4.25" height="4.25"/>
  <rect class="cls-1" x="18.5" y="32.69" width="4.25" height="4.25"/>
  <rect class="cls-1" x="18.5" y="36.94" width="4.25" height="4.25"/>
  <rect class="cls-1" x="18.5" y="41.69" width="4.25" height="4.25"/>
  <rect class="cls-1" x="18.5" y="45.94" width="4.25" height="4.25"/>
  <rect class="cls-1" x="22.75" y="45.94" width="4.25" height="4.25"/>
  <rect class="cls-1" x="27.5" y="45.94" width="4.25" height="4.25"/>
  <rect class="cls-1" x="31.75" y="45.94" width="4.25" height="4.25"/>
  <rect class="cls-1" x="36.5" y="45.94" width="4.25" height="4.25"/>
  <rect class="cls-1" x="40.75" y="45.94" width="4.25" height="4.25"/>
  <rect class="cls-1" x="45.5" y="45.94" width="4.25" height="4.25"/>
  <rect class="cls-1" x="49.75" y="45.94" width="4.25" height="4.25"/>
  <rect class="cls-1" x="49.75" y="41.69" width="4.25" height="4.25"/>
  <rect class="cls-1" x="49.75" y="36.94" width="4.25" height="4.25"/>
  <rect class="cls-1" x="49.75" y="32.69" width="4.25" height="4.25"/>
  <rect class="cls-1" x="49.75" y="27.94" width="4.25" height="4.25"/>
  <rect class="cls-1" x="45.5" y="27.94" width="4.25" height="4.25"/>
  <rect class="cls-1" x="40.75" y="27.94" width="4.25" height="4.25"/>
  <rect class="cls-1" x="36.5" y="27.94" width="4.25" height="4.25"/>
  <rect class="cls-1" x="31.75" y="27.94" width="4.25" height="4.25"/>
  <rect class="cls-1" x="27.5" y="27.94" width="4.25" height="4.25"/>
  <rect class="cls-1" x="27.5" y="32.69" width="4.25" height="4.25"/>
  <rect class="cls-1" x="27.5" y="36.94" width="4.25" height="4.25"/>
  <rect class="cls-1" x="31.75" y="36.94" width="4.25" height="4.25"/>
  <rect class="cls-1" x="36.5" y="36.94" width="4.25" height="4.25"/>
  <rect class="cls-1" x="40.75" y="36.94" width="4.25" height="4.25"/>
  <rect class="cls-1" x="4.75" y="36.94" width="4.25" height="4.25"/>
  <rect class="cls-1" x="4.75" y="41.69" width="4.25" height="4.25"/>
  <rect class="cls-1" x="4.75" y="45.94" width="4.25" height="4.25"/>
</svg>