<?xml version="1.0" encoding="UTF-8"?>
<svg id="_레이어_3" data-name="레이어 3" xmlns="http://www.w3.org/2000/svg" viewBox="0 0 63 63.94">
  <defs>
    <style>
      .cls-1 {
        fill: #040000;
        stroke: #040000;
        stroke-miterlimit: 10;
      }
    </style>
  </defs>
  <rect class="cls-1" x="49.75" y="9" width="4.25" height="4.25"/>
  <rect class="cls-1" x="49.75" y="4.25" width="4.25" height="4.25"/>
  <rect class="cls-1" x="49.75" width="4.25" height="4.25"/>
  <rect class="cls-1" x="45.5" width="4.25" height="4.25"/>
  <rect class="cls-1" x="40.75" width="4.25" height="4.25"/>
  <rect class="cls-1" x="36.5" width="4.25" height="4.25"/>
  <rect class="cls-1" x="31.75" width="4.25" height="4.25"/>
  <rect class="cls-1" x="27.5" width="4.25" height="4.25"/>
  <rect class="cls-1" x="22.75" width="4.25" height="4.25"/>
  <rect class="cls-1" x="18.5" width="4.25" height="4.25"/>
  <rect class="cls-1" x="13.75" width="4.25" height="4.25"/>
  <rect class="cls-1" x="13.75" y="4.25" width="4.25" height="4.25"/>
  <rect class="cls-1" x="9.5" y="4.25" width="4.25" height="4.25"/>
  <rect class="cls-1" x="9.5" y="9" width="4.25" height="4.25"/>
  <rect class="cls-1" x="9.5" y="13.25" width="4.25" height="4.25"/>
  <rect class="cls-1" x="9.5" y="18" width="4.25" height="4.25"/>
  <rect class="cls-1" x="4.75" y="18" width="4.25" height="4.25"/>
  <rect class="cls-1" x="4.75" y="22.25" width="4.25" height="4.25"/>
  <rect class="cls-1" x="4.75" y="27" width="4.25" height="4.25"/>
  <rect class="cls-1" x="4.75" y="13.75" width="4.25" height="4.25"/>
  <rect class="cls-1" x="9.5" y="45" width="4.25" height="4.25"/>
  <rect class="cls-1" x="13.75" y="45" width="4.25" height="4.25"/>
  <rect class="cls-1" x="13.75" y="49.25" width="4.25" height="4.25"/>
  <rect class="cls-1" x="13.75" y="54" width="4.25" height="4.25"/>
  <rect class="cls-1" x="18.5" y="54" width="4.25" height="4.25"/>
  <rect class="cls-1" x="22.75" y="54" width="4.25" height="4.25"/>
  <rect class="cls-1" x="27.5" y="54" width="4.25" height="4.25"/>
  <rect class="cls-1" x="31.75" y="54" width="4.25" height="4.25"/>
  <rect class="cls-1" x="36.5" y="54" width="4.25" height="4.25"/>
  <rect class="cls-1" x="40.75" y="54" width="4.25" height="4.25"/>
  <rect class="cls-1" x="45.5" y="54" width="4.25" height="4.25"/>
  <rect class="cls-1" x="49.75" y="54" width="4.25" height="4.25"/>
  <rect class="cls-1" x="54.5" y="54" width="4.25" height="4.25"/>
  <rect class="cls-1" x="54.5" y="49.25" width="4.25" height="4.25"/>
  <rect class="cls-1" x="54.5" y="45" width="4.25" height="4.25"/>
  <rect class="cls-1" x="54.5" y="40.25" width="4.25" height="4.25"/>
  <rect class="cls-1" x="58.75" y="40.25" width="4.25" height="4.25"/>
  <rect class="cls-1" x="58.75" y="36" width="4.25" height="4.25"/>
  <rect class="cls-1" x="58.75" y="31.25" width="4.25" height="4.25"/>
  <rect class="cls-1" x="58.75" y="27" width="4.25" height="4.25"/>
  <rect class="cls-1" x="58.75" y="22.25" width="4.25" height="4.25"/>
  <rect class="cls-1" x="58.75" y="18" width="4.25" height="4.25"/>
  <rect class="cls-1" x="58.75" y="13.25" width="4.25" height="4.25"/>
  <rect class="cls-1" x="54.5" y="13.25" width="4.25" height="4.25"/>
  <rect class="cls-1" x="49.75" y="13.25" width="4.25" height="4.25"/>
  <rect class="cls-1" x="45.5" y="13.25" width="4.25" height="4.25"/>
  <rect class="cls-1" x="40.75" y="13.25" width="4.25" height="4.25"/>
  <rect class="cls-1" x="36.5" y="13.25" width="4.25" height="4.25"/>
  <rect class="cls-1" x="31.75" y="13.25" width="4.25" height="4.25"/>
  <rect class="cls-1" x="27.5" y="13.25" width="4.25" height="4.25"/>
  <rect class="cls-1" x="22.75" y="13.25" width="4.25" height="4.25"/>
  <rect class="cls-1" x="18.5" y="13.25" width="4.25" height="4.25"/>
  <rect class="cls-1" x="18.5" y="18" width="4.25" height="4.25"/>
  <rect class="cls-1" x="18.5" y="22.25" width="4.25" height="4.25"/>
  <rect class="cls-1" x="18.5" y="27" width="4.25" height="4.25"/>
  <rect class="cls-1" x="18.5" y="31.25" width="4.25" height="4.25"/>
  <rect class="cls-1" x="18.5" y="36" width="4.25" height="4.25"/>
  <rect class="cls-1" x="18.5" y="40.25" width="4.25" height="4.25"/>
  <rect class="cls-1" x="22.75" y="40.25" width="4.25" height="4.25"/>
  <rect class="cls-1" x="27.5" y="40.25" width="4.25" height="4.25"/>
  <rect class="cls-1" x="31.75" y="40.25" width="4.25" height="4.25"/>
  <rect class="cls-1" x="36.5" y="40.25" width="4.25" height="4.25"/>
  <rect class="cls-1" x="40.75" y="40.25" width="4.25" height="4.25"/>
  <rect class="cls-1" x="45.5" y="40.25" width="4.25" height="4.25"/>
  <rect class="cls-1" x="49.75" y="40.25" width="4.25" height="4.25"/>
  <rect class="cls-1" x="49.75" y="36" width="4.25" height="4.25"/>
  <rect class="cls-1" x="49.75" y="31.25" width="4.25" height="4.25"/>
  <rect class="cls-1" x="49.75" y="27" width="4.25" height="4.25"/>
  <rect class="cls-1" x="49.75" y="22.25" width="4.25" height="4.25"/>
  <rect class="cls-1" x="45.5" y="22.25" width="4.25" height="4.25"/>
  <rect class="cls-1" x="40.75" y="22.25" width="4.25" height="4.25"/>
  <rect class="cls-1" x="36.5" y="22.25" width="4.25" height="4.25"/>
  <rect class="cls-1" x="31.75" y="22.25" width="4.25" height="4.25"/>
  <rect class="cls-1" x="27.5" y="22.25" width="4.25" height="4.25"/>
  <rect class="cls-1" x="27.5" y="27" width="4.25" height="4.25"/>
  <rect class="cls-1" x="27.5" y="31.25" width="4.25" height="4.25"/>
  <rect class="cls-1" x="31.75" y="31.25" width="4.25" height="4.25"/>
  <rect class="cls-1" x="36.5" y="31.25" width="4.25" height="4.25"/>
  <rect class="cls-1" x="40.75" y="31.25" width="4.25" height="4.25"/>
  <rect class="cls-1" x="4.75" y="31.25" width="4.25" height="4.25"/>
  <rect class="cls-1" x="4.75" y="36" width="4.25" height="4.25"/>
  <rect class="cls-1" x="4.75" y="40.25" width="4.25" height="4.25"/>
</svg>