<?xml version="1.0" encoding="UTF-8"?>
<svg id="_레이어_2" data-name="레이어 2" xmlns="http://www.w3.org/2000/svg" viewBox="0 0 72 117">
  <defs>
    <style>
      .cls-1 {
        stroke: #0b1707;
      }

      .cls-1, .cls-2, .cls-3, .cls-4 {
        stroke-miterlimit: 10;
      }

      .cls-2 {
        stroke: #487b36;
      }

      .cls-2, .cls-3 {
        fill: #2b511d;
      }

      .cls-3 {
        stroke: #2b511d;
      }

      .cls-4 {
        fill: #fff;
        stroke: #fff;
      }
    </style>
  </defs>
  <rect class="cls-4" y="45" width="5.67" height="5.67"/>
  <rect class="cls-4" y="48.33" width="5.67" height="5.67"/>
  <rect class="cls-4" y="54" width="5.67" height="5.67"/>
  <rect class="cls-4" y="57.33" width="5.67" height="5.67"/>
  <rect class="cls-4" y="63" width="5.67" height="5.67"/>
  <rect class="cls-4" y="66.33" width="5.67" height="5.67"/>
  <rect class="cls-4" y="72" width="5.67" height="5.67"/>
  <rect class="cls-4" y="75.33" width="5.67" height="5.67"/>
  <rect class="cls-4" y="81" width="5.67" height="5.67"/>
  <rect class="cls-4" x="3.33" y="81" width="5.67" height="5.67"/>
  <rect class="cls-4" x="3.33" y="84.33" width="5.67" height="5.67"/>
  <rect class="cls-4" x="3.33" y="90" width="5.67" height="5.67"/>
  <rect class="cls-4" x="3.33" y="93.33" width="5.67" height="5.67"/>
  <rect class="cls-4" x="3.33" y="99" width="5.67" height="5.67"/>
  <rect class="cls-4" x="9" y="99" width="5.67" height="5.67"/>
  <rect class="cls-4" x="9" y="102.33" width="5.67" height="5.67"/>
  <rect class="cls-4" x="9" y="108" width="5.67" height="5.67"/>
  <rect class="cls-4" x="9" y="111.33" width="5.67" height="5.67"/>
  <rect class="cls-4" x="12.33" y="111.33" width="5.67" height="5.67"/>
  <rect class="cls-4" x="18" y="111.33" width="5.67" height="5.67"/>
  <rect class="cls-4" x="21.33" y="111.33" width="5.67" height="5.67"/>
  <rect class="cls-4" x="27" y="111.33" width="5.67" height="5.67"/>
  <rect class="cls-4" x="30.33" y="111.33" width="5.67" height="5.67"/>
  <rect class="cls-4" x="36" y="111.33" width="5.67" height="5.67"/>
  <rect class="cls-4" x="39.33" y="111.33" width="5.67" height="5.67"/>
  <rect class="cls-4" x="45" y="111.33" width="5.67" height="5.67"/>
  <rect class="cls-4" x="48.33" y="111.33" width="5.67" height="5.67"/>
  <rect class="cls-4" x="54" y="111.33" width="5.67" height="5.67"/>
  <rect class="cls-4" x="54" y="108" width="5.67" height="5.67"/>
  <rect class="cls-4" x="54" y="102.33" width="5.67" height="5.67"/>
  <rect class="cls-4" x="54" y="99" width="5.67" height="5.67"/>
  <rect class="cls-4" x="57.33" y="99" width="5.67" height="5.67"/>
  <rect class="cls-4" x="57.33" y="93.33" width="5.67" height="5.67"/>
  <rect class="cls-4" x="57.33" y="90" width="5.67" height="5.67"/>
  <rect class="cls-4" x="57.33" y="84.33" width="5.67" height="5.67"/>
  <rect class="cls-4" x="57.33" y="81" width="5.67" height="5.67"/>
  <rect class="cls-4" x="63" y="81" width="5.67" height="5.67"/>
  <rect class="cls-4" x="63" y="75.33" width="5.67" height="5.67"/>
  <rect class="cls-4" x="63" y="72" width="5.67" height="5.67"/>
  <rect class="cls-4" x="63" y="66.33" width="5.67" height="5.67"/>
  <rect class="cls-4" x="63" y="63" width="5.67" height="5.67"/>
  <rect class="cls-4" x="63" y="57.33" width="5.67" height="5.67"/>
  <rect class="cls-4" x="63" y="54" width="5.67" height="5.67"/>
  <rect class="cls-4" x="63" y="48.33" width="5.67" height="5.67"/>
  <rect class="cls-4" x="63" y="45" width="5.67" height="5.67"/>
  <rect class="cls-4" x="63" y="39.33" width="5.67" height="5.67"/>
  <rect class="cls-4" x="57.33" y="39.33" width="5.67" height="5.67"/>
  <rect class="cls-4" x="54" y="39.33" width="5.67" height="5.67"/>
  <rect class="cls-4" x="48.33" y="39.33" width="5.67" height="5.67"/>
  <rect class="cls-4" x="45" y="39.33" width="5.67" height="5.67"/>
  <rect class="cls-4" x="39.33" y="39.33" width="5.67" height="5.67"/>
  <rect class="cls-4" x="36" y="39.33" width="5.67" height="5.67"/>
  <rect class="cls-4" x="30.33" y="39.33" width="5.67" height="5.67"/>
  <rect class="cls-4" x="27" y="39.33" width="5.67" height="5.67"/>
  <rect class="cls-4" x="21.33" y="39.33" width="5.67" height="5.67"/>
  <rect class="cls-4" x="18" y="39.33" width="5.67" height="5.67"/>
  <rect class="cls-4" x="12.33" y="39.33" width="5.67" height="5.67"/>
  <rect class="cls-4" x="9" y="39.33" width="5.67" height="5.67"/>
  <rect class="cls-4" x="3.33" y="39.33" width="5.67" height="5.67"/>
  <rect class="cls-4" y="39.33" width="5.67" height="5.67"/>
  <rect class="cls-2" x="9" y="93.33" width="5.67" height="5.67"/>
  <rect class="cls-2" x="12.33" y="93.33" width="5.67" height="5.67"/>
  <rect class="cls-2" x="18" y="93.33" width="5.67" height="5.67"/>
  <rect class="cls-2" x="21.33" y="93.33" width="5.67" height="5.67"/>
  <rect class="cls-2" x="27" y="93.33" width="5.67" height="5.67"/>
  <rect class="cls-2" x="30.33" y="93.33" width="5.67" height="5.67"/>
  <rect class="cls-2" x="36" y="93.33" width="5.67" height="5.67"/>
  <rect class="cls-2" x="39.33" y="93.33" width="5.67" height="5.67"/>
  <rect class="cls-2" x="45" y="93.33" width="5.67" height="5.67"/>
  <rect class="cls-2" x="48.33" y="93.33" width="5.67" height="5.67"/>
  <rect class="cls-2" x="54" y="93.33" width="5.67" height="5.67"/>
  <rect class="cls-2" x="54" y="90" width="5.67" height="5.67"/>
  <rect class="cls-2" x="54" y="84.33" width="5.67" height="5.67"/>
  <rect class="cls-2" x="54" y="81" width="5.67" height="5.67"/>
  <rect class="cls-2" x="54" y="75.33" width="5.67" height="5.67"/>
  <rect class="cls-2" x="54" y="72" width="5.67" height="5.67"/>
  <rect class="cls-2" x="54" y="75.33" width="5.67" height="5.67"/>
  <rect class="cls-2" x="57.33" y="75.33" width="5.67" height="5.67"/>
  <rect class="cls-2" x="57.33" y="72" width="5.67" height="5.67"/>
  <rect class="cls-2" x="57.33" y="66.33" width="5.67" height="5.67"/>
  <rect class="cls-2" x="57.33" y="63" width="5.67" height="5.67"/>
  <rect class="cls-2" x="54" y="63" width="5.67" height="5.67"/>
  <rect class="cls-2" x="48.33" y="63" width="5.67" height="5.67"/>
  <rect class="cls-2" x="45" y="63" width="5.67" height="5.67"/>
  <rect class="cls-2" x="39.33" y="63" width="5.67" height="5.67"/>
  <rect class="cls-2" x="36" y="63" width="5.67" height="5.67"/>
  <rect class="cls-2" x="36" y="66.33" width="5.67" height="5.67"/>
  <rect class="cls-2" x="30.33" y="66.33" width="5.67" height="5.67"/>
  <rect class="cls-2" x="27" y="66.33" width="5.67" height="5.67"/>
  <rect class="cls-2" x="21.33" y="66.33" width="5.67" height="5.67"/>
  <rect class="cls-2" x="21.33" y="72" width="5.67" height="5.67"/>
  <rect class="cls-2" x="18" y="72" width="5.67" height="5.67"/>
  <rect class="cls-2" x="12.33" y="72" width="5.67" height="5.67"/>
  <rect class="cls-2" x="9" y="72" width="5.67" height="5.67"/>
  <rect class="cls-2" x="3.33" y="72" width="5.67" height="5.67"/>
  <rect class="cls-2" x="3.33" y="75.33" width="5.67" height="5.67"/>
  <rect class="cls-2" x="9" y="75.33" width="5.67" height="5.67"/>
  <rect class="cls-2" x="9" y="81" width="5.67" height="5.67"/>
  <rect class="cls-2" x="9" y="84.33" width="5.67" height="5.67"/>
  <rect class="cls-2" x="9" y="90" width="5.67" height="5.67"/>
  <rect class="cls-2" x="9" y="93.33" width="5.67" height="5.67"/>
  <rect class="cls-2" x="12.33" y="93.33" width="5.67" height="5.67"/>
  <rect class="cls-2" x="12.33" y="99" width="5.67" height="5.67"/>
  <rect class="cls-2" x="12.33" y="102.33" width="5.67" height="5.67"/>
  <rect class="cls-2" x="12.33" y="108" width="5.67" height="5.67"/>
  <rect class="cls-2" x="18" y="108" width="5.67" height="5.67"/>
  <rect class="cls-2" x="21.33" y="108" width="5.67" height="5.67"/>
  <rect class="cls-2" x="27" y="108" width="5.67" height="5.67"/>
  <rect class="cls-2" x="30.33" y="108" width="5.67" height="5.67"/>
  <rect class="cls-2" x="36" y="108" width="5.67" height="5.67"/>
  <rect class="cls-2" x="39.33" y="108" width="5.67" height="5.67"/>
  <rect class="cls-2" x="45" y="108" width="5.67" height="5.67"/>
  <rect class="cls-2" x="48.33" y="108" width="5.67" height="5.67"/>
  <rect class="cls-2" x="48.33" y="102.33" width="5.67" height="5.67"/>
  <rect class="cls-2" x="48.33" y="99" width="5.67" height="5.67"/>
  <rect class="cls-2" x="48.33" y="93.33" width="5.67" height="5.67"/>
  <rect class="cls-3" x="45" y="102.33" width="5.67" height="5.67"/>
  <rect class="cls-3" x="39.33" y="102.33" width="5.67" height="5.67"/>
  <rect class="cls-3" x="36" y="102.33" width="5.67" height="5.67"/>
  <rect class="cls-3" x="30.33" y="102.33" width="5.67" height="5.67"/>
  <rect class="cls-3" x="27" y="102.33" width="5.67" height="5.67"/>
  <rect class="cls-3" x="21.33" y="102.33" width="5.67" height="5.67"/>
  <rect class="cls-3" x="18" y="102.33" width="5.67" height="5.67"/>
  <rect class="cls-3" x="12.33" y="102.33" width="5.67" height="5.67"/>
  <rect class="cls-3" x="12.33" y="99" width="5.67" height="5.67"/>
  <rect class="cls-3" x="18" y="99" width="5.67" height="5.67"/>
  <rect class="cls-3" x="21.33" y="99" width="5.67" height="5.67"/>
  <rect class="cls-3" x="27" y="99" width="5.67" height="5.67"/>
  <rect class="cls-3" x="30.33" y="99" width="5.67" height="5.67"/>
  <rect class="cls-3" x="36" y="99" width="5.67" height="5.67"/>
  <rect class="cls-3" x="39.33" y="99" width="5.67" height="5.67"/>
  <rect class="cls-3" x="45" y="99" width="5.67" height="5.67"/>
  <rect class="cls-3" x="45" y="93.33" width="5.67" height="5.67"/>
  <rect class="cls-3" x="45" y="90" width="5.67" height="5.67"/>
  <rect class="cls-3" x="48.33" y="90" width="5.67" height="5.67"/>
  <rect class="cls-3" x="48.33" y="84.33" width="5.67" height="5.67"/>
  <rect class="cls-3" x="48.33" y="81" width="5.67" height="5.67"/>
  <rect class="cls-3" x="48.33" y="75.33" width="5.67" height="5.67"/>
  <rect class="cls-3" x="48.33" y="72" width="5.67" height="5.67"/>
  <rect class="cls-3" x="54" y="72" width="5.67" height="5.67"/>
  <rect class="cls-3" x="54" y="66.33" width="5.67" height="5.67"/>
  <rect class="cls-3" x="54" y="63" width="5.67" height="5.67"/>
  <rect class="cls-3" x="54" y="66.33" width="5.67" height="5.67"/>
  <rect class="cls-3" x="48.33" y="66.33" width="5.67" height="5.67"/>
  <rect class="cls-3" x="45" y="66.33" width="5.67" height="5.67"/>
  <rect class="cls-3" x="39.33" y="66.33" width="5.67" height="5.67"/>
  <rect class="cls-3" x="39.33" y="72" width="5.67" height="5.67"/>
  <rect class="cls-3" x="39.33" y="75.33" width="5.67" height="5.67"/>
  <rect class="cls-3" x="39.33" y="81" width="5.67" height="5.67"/>
  <rect class="cls-3" x="39.33" y="84.33" width="5.67" height="5.67"/>
  <rect class="cls-3" x="39.33" y="90" width="5.67" height="5.67"/>
  <rect class="cls-3" x="36" y="90" width="5.67" height="5.67"/>
  <rect class="cls-3" x="30.33" y="90" width="5.67" height="5.67"/>
  <rect class="cls-3" x="27" y="90" width="5.67" height="5.67"/>
  <rect class="cls-3" x="21.33" y="90" width="5.67" height="5.67"/>
  <rect class="cls-3" x="18" y="90" width="5.67" height="5.67"/>
  <rect class="cls-3" x="12.33" y="90" width="5.67" height="5.67"/>
  <rect class="cls-3" x="12.33" y="84.33" width="5.67" height="5.67"/>
  <rect class="cls-3" x="12.33" y="81" width="5.67" height="5.67"/>
  <rect class="cls-3" x="12.33" y="75.33" width="5.67" height="5.67"/>
  <rect class="cls-3" x="18" y="75.33" width="5.67" height="5.67"/>
  <rect class="cls-3" x="21.33" y="75.33" width="5.67" height="5.67"/>
  <rect class="cls-3" x="27" y="75.33" width="5.67" height="5.67"/>
  <rect class="cls-3" x="30.33" y="75.33" width="5.67" height="5.67"/>
  <rect class="cls-3" x="27" y="75.33" width="5.67" height="5.67"/>
  <rect class="cls-3" x="27" y="72" width="5.67" height="5.67"/>
  <rect class="cls-3" x="30.33" y="72" width="5.67" height="5.67"/>
  <rect class="cls-3" x="36" y="72" width="5.67" height="5.67"/>
  <rect class="cls-3" x="39.33" y="72" width="5.67" height="5.67"/>
  <rect class="cls-3" x="45" y="72" width="5.67" height="5.67"/>
  <rect class="cls-3" x="45" y="75.33" width="5.67" height="5.67"/>
  <rect class="cls-3" x="45" y="81" width="5.67" height="5.67"/>
  <rect class="cls-3" x="45" y="84.33" width="5.67" height="5.67"/>
  <rect class="cls-3" x="39.33" y="84.33" width="5.67" height="5.67"/>
  <rect class="cls-3" x="36" y="84.33" width="5.67" height="5.67"/>
  <rect class="cls-3" x="30.33" y="84.33" width="5.67" height="5.67"/>
  <rect class="cls-3" x="27" y="84.33" width="5.67" height="5.67"/>
  <rect class="cls-3" x="21.33" y="84.33" width="5.67" height="5.67"/>
  <rect class="cls-3" x="18" y="84.33" width="5.67" height="5.67"/>
  <rect class="cls-3" x="12.33" y="84.33" width="5.67" height="5.67"/>
  <rect class="cls-3" x="12.33" y="81" width="5.67" height="5.67"/>
  <rect class="cls-3" x="12.33" y="75.33" width="5.67" height="5.67"/>
  <rect class="cls-3" x="18" y="75.33" width="5.67" height="5.67"/>
  <rect class="cls-3" x="21.33" y="75.33" width="5.67" height="5.67"/>
  <rect class="cls-3" x="27" y="75.33" width="5.67" height="5.67"/>
  <rect class="cls-3" x="30.33" y="75.33" width="5.67" height="5.67"/>
  <rect class="cls-3" x="36" y="75.33" width="5.67" height="5.67"/>
  <rect class="cls-3" x="36" y="81" width="5.67" height="5.67"/>
  <rect class="cls-3" x="36" y="84.33" width="5.67" height="5.67"/>
  <rect class="cls-3" x="30.33" y="84.33" width="5.67" height="5.67"/>
  <rect class="cls-3" x="27" y="84.33" width="5.67" height="5.67"/>
  <rect class="cls-3" x="21.33" y="84.33" width="5.67" height="5.67"/>
  <rect class="cls-3" x="21.33" y="81" width="5.67" height="5.67"/>
  <rect class="cls-3" x="18" y="81" width="5.67" height="5.67"/>
  <rect class="cls-3" x="18" y="75.33" width="5.67" height="5.67"/>
  <rect class="cls-3" x="12.33" y="75.33" width="5.67" height="5.67"/>
  <rect class="cls-3" x="12.33" y="81" width="5.67" height="5.67"/>
  <rect class="cls-3" x="18" y="81" width="5.67" height="5.67"/>
  <rect class="cls-3" x="21.33" y="81" width="5.67" height="5.67"/>
  <rect class="cls-3" x="27" y="81" width="5.67" height="5.67"/>
  <rect class="cls-3" x="30.33" y="81" width="5.67" height="5.67"/>
  <rect class="cls-3" x="36" y="81" width="5.67" height="5.67"/>
  <rect class="cls-3" x="12.33" y="27" width="5.67" height="5.67"/>
  <rect class="cls-3" x="9" y="23.67" width="5.67" height="5.67"/>
  <rect class="cls-3" x="12.33" y="18" width="5.67" height="5.67"/>
  <rect class="cls-3" x="9" y="14.67" width="5.67" height="5.67"/>
  <rect class="cls-3" x="12.33" y="9" width="5.67" height="5.67"/>
  <rect class="cls-3" x="9" y="5.67" width="5.67" height="5.67"/>
  <rect class="cls-3" x="12.33" width="5.67" height="5.67"/>
  <rect class="cls-3" x="30.33" y="27" width="5.67" height="5.67"/>
  <rect class="cls-3" x="27" y="23.67" width="5.67" height="5.67"/>
  <rect class="cls-3" x="30.33" y="18" width="5.67" height="5.67"/>
  <rect class="cls-3" x="27" y="14.67" width="5.67" height="5.67"/>
  <rect class="cls-3" x="30.33" y="9" width="5.67" height="5.67"/>
  <rect class="cls-3" x="27" y="5.67" width="5.67" height="5.67"/>
  <rect class="cls-3" x="30.33" width="5.67" height="5.67"/>
  <rect class="cls-3" x="48.33" y="28.67" width="5.67" height="5.67"/>
  <rect class="cls-3" x="45" y="25.33" width="5.67" height="5.67"/>
  <rect class="cls-3" x="48.33" y="19.67" width="5.67" height="5.67"/>
  <rect class="cls-3" x="45" y="16.33" width="5.67" height="5.67"/>
  <rect class="cls-3" x="48.33" y="10.67" width="5.67" height="5.67"/>
  <rect class="cls-3" x="45" y="7.33" width="5.67" height="5.67"/>
  <rect class="cls-3" x="48.33" y="1.67" width="5.67" height="5.67"/>
  <rect class="cls-1" x="18" y="81" width="2.83" height="2.83"/>
  <rect class="cls-1" x="18" y="87.17" width="2.83" height="2.83"/>
  <rect class="cls-1" x="33.17" y="81" width="2.83" height="2.83"/>
  <rect class="cls-1" x="36" y="96.17" width="2.83" height="2.83"/>
  <rect class="cls-1" x="45" y="72" width="2.83" height="2.83"/>
  <rect class="cls-1" x="51.17" y="81" width="2.83" height="2.83"/>
  <rect class="cls-1" x="24.17" y="105.17" width="2.83" height="2.83"/>
  <rect class="cls-1" x="9" y="78.17" width="2.83" height="2.83"/>
  <rect class="cls-1" x="27" y="69.17" width="2.83" height="2.83"/>
  <rect class="cls-1" x="42.17" y="87.17" width="2.83" height="2.83"/>
  <rect class="cls-1" x="54" y="69.17" width="2.83" height="2.83"/>
  <rect class="cls-1" x="15.17" y="96.17" width="2.83" height="2.83"/>
  <rect class="cls-1" x="45" y="108" width="2.83" height="2.83"/>
  <rect class="cls-1" x="42.17" y="90" width="2.83" height="2.83"/>
</svg>