<?xml version="1.0" encoding="UTF-8"?>
<svg id="_레이어_1" data-name="레이어 1" xmlns="http://www.w3.org/2000/svg" viewBox="0 0 37.46 33.79">
  <defs>
    <style>
      .cls-1 {
        fill: #fff;
        stroke: #fff;
        stroke-miterlimit: 10;
      }
    </style>
  </defs>
  <rect class="cls-1" x="7.24" y="22.46" width="6.59" height="6.59" transform="translate(-.06 .03) rotate(-.14)"/>
  <rect class="cls-1" x="12.43" y="13.38" width="9.8" height="9.8" transform="translate(-.04 .04) rotate(-.14)"/>
  <rect class="cls-1" x="23.48" y=".88" width="1.03" height="5.39" transform="translate(0 .06) rotate(-.14)"/>
  <rect class="cls-1" x="5.87" y="8.88" width="9.42" height="9.42" transform="translate(-.03 .03) rotate(-.14)"/>
  <rect class="cls-1" x="3.64" y="28.19" width="4.54" height="4.54" transform="translate(-.07 .01) rotate(-.14)"/>
  <rect class="cls-1" x="2.06" y="5.5" width="6.8" height="6.8" transform="translate(-.02 .01) rotate(-.14)"/>
  <rect class="cls-1" x="18.88" y="19.06" width="9.3" height="10.4" transform="translate(-.06 .06) rotate(-.14)"/>
  <rect class="cls-1" x="24.88" y="25.31" width="6.62" height="6.62" transform="translate(-.07 .07) rotate(-.14)"/>
  <rect class="cls-1" x="19.66" y="6.27" width="8.7" height="8.7" transform="translate(-.03 .06) rotate(-.14)"/>
  <rect class="cls-1" x="30.56" y="7.91" width=".99" height="5.39" transform="translate(41.59 -20.47) rotate(89.86)"/>
</svg>