<?xml version="1.0" encoding="UTF-8"?>
<svg id="_레이어_1" data-name="레이어 1" xmlns="http://www.w3.org/2000/svg" viewBox="0 0 39.77 40.06">
  <defs>
    <style>
      .cls-1 {
        fill: #fff;
        stroke: #fff;
        stroke-miterlimit: 10;
      }
    </style>
  </defs>
  <rect class="cls-1" x="8.5" y="11.54" width="6.59" height="6.59" transform="translate(24.57 .84) rotate(80.91)"/>
  <rect class="cls-1" x="15.33" y="15.47" width="9.8" height="9.8" transform="translate(37.16 -2.82) rotate(80.91)"/>
  <rect class="cls-1" x="35.28" y="21.97" width="1.03" height="5.39" transform="translate(54.5 -14.58) rotate(80.91)"/>
  <rect class="cls-1" x="19.11" y="8.27" width="9.42" height="9.42" transform="translate(32.87 -12.59) rotate(80.91)"/>
  <rect class="cls-1" x="4.16" y="8.72" width="4.54" height="4.54" transform="translate(16.26 2.91) rotate(80.91)"/>
  <rect class="cls-1" x="24.26" y="3.8" width="6.8" height="6.8" transform="translate(30.4 -21.26) rotate(80.91)"/>
  <rect class="cls-1" x="10.64" y="22.23" width="9.3" height="10.4" transform="translate(39.96 8) rotate(80.91)"/>
  <rect class="cls-1" x="8.41" y="29.4" width="6.62" height="6.62" transform="translate(42.17 15.97) rotate(80.91)"/>
  <rect class="cls-1" x="24.49" y="21.43" width="8.7" height="8.7" transform="translate(49.74 -6.77) rotate(80.91)"/>
  <rect class="cls-1" x="29.46" y="30.05" width=".99" height="5.39" transform="translate(64.7 60.35) rotate(170.91)"/>
</svg>