<?xml version="1.0" encoding="UTF-8"?>
<svg id="_레이어_1" data-name="레이어 1" xmlns="http://www.w3.org/2000/svg" viewBox="0 0 39.77 40.06">
  <defs>
    <style>
      .cls-1 {
        fill: #fff;
        stroke: #fff;
        stroke-miterlimit: 10;
      }
    </style>
  </defs>
  <rect class="cls-1" x="25.84" y="13.94" width="6.59" height="6.59" transform="translate(45.46 46.88) rotate(-149.45)"/>
  <rect class="cls-1" x="14.58" y="15.29" width="9.8" height="9.8" transform="translate(25.99 47.47) rotate(-149.45)"/>
  <rect class="cls-1" x="5.73" y="26.74" width="1.03" height="5.39" transform="translate(-3.35 57.97) rotate(-149.45)"/>
  <rect class="cls-1" x="18.18" y="22.96" width="9.42" height="9.42" transform="translate(28.54 63.13) rotate(-149.45)"/>
  <rect class="cls-1" x="33.24" y="13.28" width="4.54" height="4.54" transform="translate(58.19 46.98) rotate(-149.45)"/>
  <rect class="cls-1" x="21.49" y="30.92" width="6.8" height="6.8" transform="translate(28.88 76.53) rotate(-149.45)"/>
  <rect class="cls-1" x="12.55" y="6.68" width="9.3" height="10.4" transform="translate(25.97 30.86) rotate(-149.45)"/>
  <rect class="cls-1" x="12.1" y="2.46" width="6.62" height="6.62" transform="translate(25.75 18.57) rotate(-149.45)"/>
  <rect class="cls-1" x="5.47" y="19.02" width="8.7" height="8.7" transform="translate(6.41 48.49) rotate(-149.45)"/>
  <rect class="cls-1" x="3.26" y="17.09" width=".99" height="5.39" transform="translate(-15.2 12.96) rotate(-59.45)"/>
</svg>